<svg width="88" height="24" viewBox="0 0 88 24" fill="none" xmlns="http://www.w3.org/2000/svg">
<path d="M37.4173 24H32.5669V7.7663H37.4173V24ZM11.7795 4.23724C12.0122 4.23747 12.2443 4.26111 12.4724 4.30782V0.129408C11.3726 -0.0777472 10.2414 -0.0357798 9.1592 0.252333C8.07702 0.540445 7.07036 1.06764 6.21065 1.79651C5.35093 2.52537 4.65924 3.43805 4.18466 4.46976C3.71007 5.50148 3.46423 6.62695 3.46457 7.7663H0V12.0012H3.46457V24H8.31496V12.0012H11.7795V7.7663H8.31496C8.31496 6.83034 8.67998 5.93271 9.32971 5.27088C9.97944 4.60905 10.8607 4.23724 11.7795 4.23724V4.23724ZM34.9921 1.41399C34.5125 1.41399 34.0436 1.55887 33.6448 1.83032C33.2459 2.10176 32.9351 2.48758 32.7515 2.93897C32.568 3.39037 32.52 3.88707 32.6135 4.36627C32.7071 4.84547 32.9381 5.28565 33.2773 5.63113C33.6164 5.97661 34.0486 6.21189 34.519 6.30721C34.9894 6.40253 35.4771 6.35361 35.9202 6.16663C36.3634 5.97966 36.7421 5.66303 37.0086 5.25678C37.2751 4.85054 37.4173 4.37292 37.4173 3.88433C37.4173 3.22916 37.1618 2.60081 36.707 2.13753C36.2522 1.67426 35.6353 1.41399 34.9921 1.41399V1.41399ZM85.2284 18.3535C84.6802 18.3535 84.1443 18.5191 83.6885 18.8293C83.2327 19.1395 82.8775 19.5805 82.6677 20.0963C82.4579 20.6122 82.403 21.1799 82.51 21.7275C82.6169 22.2752 82.8809 22.7782 83.2685 23.1731C83.6561 23.5679 84.15 23.8368 84.6876 23.9457C85.2253 24.0547 85.7826 23.9988 86.289 23.7851C86.7955 23.5714 87.2284 23.2095 87.5329 22.7453C87.8375 22.281 88 21.7351 88 21.1767C88 20.428 87.708 19.7099 87.1882 19.1804C86.6684 18.6509 85.9634 18.3535 85.2284 18.3535ZM29.7953 7.7663V24H24.9449V22.5884C23.7475 23.4204 22.3499 23.904 20.9027 23.9871C19.4555 24.0702 18.0134 23.7496 16.7318 23.0599C15.4502 22.3701 14.3775 21.3374 13.6293 20.0728C12.8812 18.8082 12.4858 17.3596 12.4858 15.8832C12.4858 14.4067 12.8812 12.9581 13.6293 11.6935C14.3775 10.4289 15.4502 9.39615 16.7318 8.70641C18.0134 8.01667 19.4555 7.69608 20.9027 7.77916C22.3499 7.86225 23.7475 8.34586 24.9449 9.17793V7.7663H29.7953ZM24.9449 15.8832C24.9449 15.1154 24.7214 14.3648 24.3026 13.7264C23.8839 13.0881 23.2887 12.5905 22.5923 12.2967C21.8959 12.0029 21.1296 11.926 20.3904 12.0758C19.6511 12.2256 18.972 12.5953 18.4391 13.1382C17.9061 13.6811 17.5431 14.3728 17.3961 15.1258C17.249 15.8788 17.3245 16.6594 17.6129 17.3687C17.9014 18.0781 18.3899 18.6843 19.0166 19.1109C19.6433 19.5374 20.3801 19.7651 21.1339 19.7651C22.1446 19.7651 23.114 19.3561 23.8287 18.6281C24.5434 17.9001 24.9449 16.9127 24.9449 15.8832ZM51.9685 7.7663H39.4961V12.0012H46.4252L39.4961 19.7651V24H51.9685V19.7651H45.0394L51.9685 12.0012V7.7663ZM77.9528 9.17793V7.7663H73.1024V24H77.9528V15.8832C77.9528 14.76 78.3908 13.6828 79.1705 12.8886C79.9501 12.0944 81.0076 11.6483 82.1102 11.6483C82.228 11.6483 82.3424 11.6483 82.4567 11.6483V7.7663C80.85 7.76357 79.28 8.25563 77.9528 9.17793ZM65.4803 7.7663V16.4231C65.4803 17.3123 65.1336 18.165 64.5163 18.7938C63.8991 19.4225 63.0619 19.7757 62.189 19.7757C61.3161 19.7757 60.4789 19.4225 59.8617 18.7938C59.2444 18.165 58.8976 17.3123 58.8976 16.4231V7.7663H54.0473V16.589C54.0481 17.9427 54.413 19.2703 55.1022 20.4277C55.7915 21.5852 56.7788 22.5282 57.957 23.1544C59.1352 23.7807 60.4593 24.0663 61.7856 23.9802C63.1119 23.8941 64.3897 23.4396 65.4803 22.666V24H70.3307V7.7663H65.4803Z" fill="black"/>
</svg>
