<svg xmlns="http://www.w3.org/2000/svg" width="48" height="32" viewBox="0 0 48 32">
  <g transform="matrix(1 0 0 -1 0 32)">
    <path d="M-2.9247497e-13 30.115007L-2.9247497e-13 28.2748948 1.51473187 28.2748948 3.02946374 28.2748948 3.02946374 20.1514727 3.02946374 12.0280505 1.51473187 12.0280505-2.9247497e-13 12.0280505-2.9247497e-13 10.1879383-2.9247497e-13 8.34333801 7.36114474 8.36129032C14.0576161 8.37475456 14.7629838 8.38373072 15.2377505 8.45105189 17.4488069 8.78316971 19.0584921 9.49228612 20.2386265 10.6591865 21.120336 11.5343619 21.658405 12.5755961 21.866398 13.8187938 21.9568298 14.3887798 21.9342218 15.7621318 21.8166606 16.2692847 21.3373723 18.3966339 19.9854175 19.8373072 17.9280951 20.4252454L17.403591 20.573352 17.8060123 20.7618513C19.7322086 21.654979 20.8535624 23.5534362 20.8490408 25.8962132 20.8445192 26.6187938 20.7902601 27.0676017 20.6365262 27.597195 20.0215902 29.6976157 18.1903472 31.1786816 15.5361753 31.7082749 14.4012568 31.9326788 14.6815952 31.9281907 7.13506536 31.941655L-2.9247497e-13 31.9596073-2.9247497e-13 30.115007zM14.8986314 18.1542777C16.5083166 17.9208976 17.4985443 17.1758766 17.7472316 16 18.0004406 14.8151473 17.5482818 13.598878 16.60327 12.9077139 16.1375464 12.571108 15.418614 12.283871 14.6499441 12.1357644 14.3153466 12.0684432 13.8179719 12.054979 10.7523355 12.0415147L7.23454029 12.0235624 7.23454029 15.1203366 7.23454029 18.2215989 10.8427673 18.2215989C13.7501481 18.2215989 14.5323828 18.2081346 14.8986314 18.1542777zM14.8986314 28.6338099C16.5083166 28.4004298 17.4985443 27.6554087 17.7472316 26.4795322 18.0004406 25.2946794 17.5482818 24.0784101 16.60327 23.387246 16.1375464 23.0506402 15.418614 22.7634031 14.6499441 22.6152965 14.3153466 22.5479754 13.8179719 22.5345111 10.7523355 22.5210469L7.23454029 22.5030946 7.23454029 25.5998688 7.23454029 28.701131 10.8427673 28.701131C13.7501481 28.701131 14.5323828 28.6876668 14.8986314 28.6338099zM25.5921863 30.115007L25.5921863 28.2748948 27.1069181 28.2748948 28.62165 28.2748948 28.62165 20.1514727 28.62165 12.0280505 27.1069181 12.0280505 25.5921863 12.0280505 25.5921863 10.1879383 25.5921863 8.34333801 32.9307231 8.36129032C40.9565412 8.37924264 40.5948142 8.3657784 41.8699019 8.64403927 44.248257 9.16465638 46.0568921 10.4168303 46.9295585 12.1537167 47.1375516 12.5621318 47.3681525 13.2847125 47.4495411 13.773913 47.5535376 14.3798036 47.5444944 15.430014 47.4314548 16.0762973 47.0516414 18.2619916 45.6544708 19.8148668 43.5067166 20.4297335L43.0002988 20.573352 43.4388928 20.7842917C44.9310168 21.4889201 45.9348092 22.799439 46.3236658 24.5497896 46.4231407 25.0030856 46.463835 26.3539972 46.3914896 26.8431978 46.2061045 28.1178121 45.564039 29.2936886 44.6145056 30.1105189 43.5971484 30.9856942 42.2587584 31.542216 40.4817745 31.829453L39.8577954 31.9281907 32.7272516 31.941655 25.5921863 31.9596073 25.5921863 30.115007zM39.346856 28.2075736C41.1961853 27.9652174 42.1638051 27.2426367 42.439622 25.8962132 42.5255321 25.4563815 42.5074458 24.7831697 42.3944061 24.3478261 42.1050245 23.2706872 41.2640092 22.512202 40.016051 22.1980365 39.2745106 22.0140252 38.8268734 21.9915849 35.7431506 21.9915849L32.8267265 21.9915849 32.8267265 25.1332398 32.8267265 28.2748948 35.8290608 28.2748948C38.2255022 28.2748948 38.9399131 28.2614306 39.346856 28.2075736zM35.6301109 15.1203366L34.0701632 12.0280505 33.4507056 12.0280505 32.8267265 12.0280505 32.8267265 15.1248247 32.8267265 18.2215989 34.9880455 18.230575C36.1727014 18.2395512 37.153886 18.2395512 37.1674507 18.230575 37.1764939 18.2215989 36.484691 16.8258065 35.6301109 15.1203366zM41.1283615 18.0196353C42.2406721 17.7413745 43.0048204 17.1130435 43.2761157 16.2513324 43.3258531 16.0897616 43.3801122 15.7621318 43.393677 15.5287518 43.5021951 13.7559607 42.3084959 12.4992987 40.1833497 12.1357644 39.7131046 12.054979 37.4613539 11.9876578 37.4884834 12.054979 37.4975266 12.0774194 38.1893295 13.4552595 39.0167801 15.1158485 40.1200475 17.3105189 40.5495983 18.1318373 40.6083789 18.1318373 40.6490732 18.1318373 40.8841958 18.0824684 41.1283615 18.0196353zM3.84334953 2.17671809L3.84334953 0 4.40854799 0 4.97374645 0 4.97374645 1.33295933 4.97374645 2.66143058 5.14556678 2.41907433C5.24052012 2.28443198 5.4665995 1.97026648 5.64746301 1.714446L5.97753891 1.25217391 6.47039197 1.95680224 6.96324503 2.66143058 6.96324503 1.32847125 6.96324503 0 7.52844349 0 8.09364195 0 8.09364195 2.17671809 8.09364195 4.35343619 7.54200825 4.35343619 6.98585296 4.35343619 6.48847832 3.63534362C6.21718306 3.24039271 5.9820605 2.91725105 5.96849574 2.91725105 5.95493097 2.91725105 5.72433 3.24039271 5.44851315 3.63534362L4.9556601 4.35343619 4.39950481 4.35343619 3.84334953 4.35343619 3.84334953 2.17671809zM13.1849497 4.31753156C13.1759065 4.29957924 12.7780068 3.32117812 12.3077617 2.14081346L11.4531816 0 12.0726391 0 12.6920966 0 12.8458306.507152875 13.0040862 1.00981767 13.7275402 1.02328191 14.4464726 1.03225806 14.618293.516129032 14.7901133 0 15.4005276 0C15.7351251 0 16.0064204.00897615708 16.0064204.0179523142 16.0064204.0269284712 15.7260819.736044881 15.3779197 1.59775596 15.034279 2.45946704 14.6454225 3.43338008 14.518818 3.76100982L14.2791739 4.35343619 13.7456265 4.35343619C13.4517233 4.35343619 13.1985144 4.33548387 13.1849497 4.31753156zM13.949098 2.55371669C14.0621377 2.22608696 14.1525694 1.93884993 14.1525694 1.92089762 14.1525694 1.9029453 13.9626628 1.88499299 13.7275402 1.88499299L13.3070325 1.88499299 13.510504 2.53576438C13.6235437 2.89032258 13.7230186 3.17755961 13.7320618 3.16858345 13.741105 3.15960729 13.8405799 2.8858345 13.949098 2.55371669zM19.3071794 2.17671809L19.3071794 0 19.8723778 0 20.4375763 0 20.4375763.718092567 20.4375763 1.43618513 20.6772205 1.43618513 20.9168646 1.43618513 21.3238075.718092567 21.7262288 0 22.3502079 0C22.689327 0 22.9696654.00897615708 22.9696654.0224403927 22.9696654.0359046283 22.7481076.390462833 22.4722908.807854137 22.2009955 1.22524544 21.9749161 1.5887798 21.9749161 1.6112202 21.9749161 1.63366059 22.0291752 1.66507714 22.0924774 1.67854137 22.1557796 1.69649369 22.304992 1.80420757 22.4225533 1.92089762 22.6983701 2.19467041 22.7888019 2.45049088 22.7888019 2.96213184 22.7888019 3.55904628 22.589852 3.88667602 22.0698695 4.14698457 21.7262288 4.32201964 21.4458904 4.35343619 20.3471446 4.35343619L19.3071794 4.35343619 19.3071794 2.17671809zM21.3147643 3.39298738C21.8076174 3.19102384 21.7714447 2.48190743 21.2605053 2.33380084 21.1700735 2.30687237 20.9530373 2.28892006 20.7766954 2.29789621L20.4601842 2.31136045 20.4466195 2.8858345 20.4330547 3.45582048 20.7993033 3.45582048C21.0072964 3.45582048 21.2288542 3.42889201 21.3147643 3.39298738zM26.406072 2.17671809L26.406072 0 26.9712705 0 27.536469 0 27.536469.686676017 27.536469 1.37335203 27.6902029 1.52145863 27.8484585 1.6740533 28.3955706.834782609 28.9472043 0 29.6706583 0 30.3941124 0 30.2855943.148106592C29.4355358 1.26115007 28.5764341 2.42356241 28.5764341 2.45946704 28.5764341 2.49985975 28.9110316 2.88134642 29.9012593 3.96297335L30.2584647 4.35343619 29.4897948 4.35343619 28.7166033 4.35343619 28.1378401 3.62187938 27.5590769 2.8858345 27.5455121 3.62187938 27.536469 4.35343619 26.9712705 4.35343619 26.406072 4.35343619 26.406072 2.17671809z"/>
    <polygon points="33.686 2.177 33.686 0 35.223 0 36.761 0 36.761 .471 36.761 .942 35.788 .942 34.816 .942 34.816 1.324 34.816 1.705 35.653 1.705 36.489 1.705 36.489 2.177 36.489 2.648 35.653 2.648 34.812 2.648 34.825 3.043 34.839 3.433 35.802 3.447 36.761 3.456 36.761 3.905 36.761 4.353 35.223 4.353 33.686 4.353"/>
    <polygon points="40.061 3.882 40.061 3.411 40.694 3.411 41.327 3.411 41.327 1.705 41.327 0 41.893 0 42.458 0 42.458 1.705 42.458 3.411 43.091 3.411 43.724 3.411 43.724 3.882 43.724 4.353 41.893 4.353 40.061 4.353"/>
  </g>
</svg>
