<svg xmlns="http://www.w3.org/2000/svg" width="56" height="24" viewBox="0 0 56 24">
  <path d="M30.8129871,5.69774664 L30.8129871,11.7981341 C30.8129871,17.9213124 30.7825991,18.718997 30.5318982,19.6002485 C30.0836755,21.1804235 28.8605592,22.6314497 27.3563541,23.3683582 C26.4371176,23.816581 25.9357159,23.9381329 24.8417486,23.9837149 C24.066855,24.0216999 23.8313482,23.9989089 23.2463795,23.854566 C22.8741267,23.763402 22.387919,23.6038651 22.1676061,23.5051042 C21.6586074,23.2847913 20.8153409,22.7226136 20.5342521,22.4263308 L20.3215362,22.2060179 L21.4458916,21.0892596 C22.0612482,20.4814999 22.5778439,19.9800982 22.5854409,19.9800982 C22.6006349,19.9800982 22.7677688,20.0940532 22.9652907,20.2383961 C23.4894834,20.6106489 23.9908851,20.7625888 24.6594207,20.7625888 C25.79897,20.7549918 26.6802215,20.2080081 27.2044142,19.1900107 L27.508294,18.5898481 L27.531085,12.1475958 L27.553876,5.69774664 L30.8129871,5.69774664 Z M16.9104852,5.69774664 L16.9104852,17.9289094 L15.2999222,17.9137155 L13.6817621,17.8909245 L13.6589712,11.7905371 L13.6437772,5.69774664 L16.9104852,5.69774664 Z M39.2456521,5.81170158 C41.4259898,6.26752131 43.2872537,8.03762127 43.8950134,10.225556 C44.0545503,10.7953306 44.0621473,11.0004495 44.0925352,14.3735155 L44.1153262,17.9289094 L40.8486181,17.9289094 L40.8258272,14.4874705 L40.8030362,11.0536285 L40.5523353,10.5446298 C40.0433366,9.5038414 39.1392942,8.94166373 37.9541629,8.93406674 C37.3843882,8.93406674 37.2476423,8.95685773 36.8146135,9.1619766 C35.925765,9.57981136 35.4091693,10.195168 35.1736625,11.0916135 C34.8393947,12.4058937 35.4775423,13.7733529 36.7234496,14.4039035 C37.1184933,14.6090224 37.2248513,14.6242164 37.9541629,14.6242164 C38.6606834,14.6242164 38.8050263,14.6014254 39.1848761,14.4190975 C39.42798,14.3051426 39.7926358,14.0544417 40.0053516,13.8569198 L40.3852014,13.4998611 L40.3852014,17.3819258 L39.9901577,17.5490597 C39.7698448,17.6402236 39.336816,17.7617755 39.0177422,17.8225515 C36.2904208,18.3087592 33.6010844,16.8957181 32.4159531,14.3583215 C31.9753274,13.4086971 31.8537754,12.7325645 31.8917604,11.5246422 C31.9221484,10.6889727 31.9601334,10.4230779 32.1348643,9.91407916 C32.4539381,8.98724571 32.9021608,8.25793414 33.5858904,7.55901055 C34.5051269,6.6245801 35.3180054,6.15356638 36.5487187,5.84208956 C37.2248513,5.67495566 38.5163405,5.65976167 39.2456521,5.81170158 Z M48.2860768,5.69774664 L48.2860768,17.9289094 L45.0953386,17.9289094 L45.0953386,5.69774664 L48.2860768,5.69774664 Z M21.7649654,5.69774664 L21.7877564,9.13158862 L21.8105474,12.5730276 L22.0308602,13.0288473 C22.3195461,13.606219 22.8285448,14.1152177 23.4059164,14.4039035 C23.8237512,14.6014254 23.9301091,14.6242164 24.6594207,14.6242164 C25.3811353,14.6242164 25.5026872,14.6014254 25.890134,14.4115005 C26.1256408,14.2975456 26.4826996,14.0544417 26.6878185,13.8721138 L27.0524743,13.545443 L27.0296833,15.4674829 L27.0068923,17.3971198 L26.8017734,17.5034777 C26.0420739,17.8985215 24.165616,18.0200734 23.1400216,17.7465815 C21.4231006,17.2907618 19.9112985,16.0524515 19.1515989,14.4722765 C18.5590333,13.2339662 18.5590333,13.2491602 18.5286453,9.24554356 L18.4982573,5.69774664 L21.7649654,5.69774664 Z M12.283915,-2.55795385e-12 L12.261124,6.47264019 L12.238333,12.9528774 L11.9876321,13.6745919 C11.6609613,14.6014254 11.2507236,15.300349 10.6201729,15.9688846 C9.82248842,16.8121511 8.85766998,17.3971198 7.74091164,17.7161936 C6.89764514,17.9517004 5.42382801,17.9517004 4.5805615,17.7161936 C3.04596841,17.2831648 1.67091222,16.2347794 0.880824682,14.8977082 C0.113528134,13.606219 -0.144769714,11.919686 0.197095085,10.4382719 C0.690899794,8.28072512 2.27867186,6.59419212 4.45141258,5.91046252 C4.95281428,5.75852261 5.17312715,5.73573162 6.19872155,5.73573162 C7.23191294,5.74332862 7.43703182,5.7661196 7.87006057,5.91805951 C8.14355241,6.00922346 8.40944725,6.12317839 8.46262622,6.16876037 C8.52340218,6.22278345 8.54816276,6.61895269 8.55291479,7.70408294 L8.55379016,10.0432281 L8.19673137,9.72415427 C6.93563012,8.61499293 5.19591814,8.6529779 4.0715628,9.80772122 C2.7117006,11.2131654 3.17511733,13.583428 4.96800828,14.4190975 C5.34785805,14.6014254 5.49979796,14.6242164 6.16073657,14.6242164 C6.82167518,14.6242164 6.97361509,14.6014254 7.35346487,14.4190975 C8.20432837,14.0240537 8.834879,13.2111752 9.0020129,12.2767448 C9.05186818,11.9918574 9.08169233,10.0978018 9.0852256,6.62587656 L9.08557985,-2.55795385e-12 L12.283915,-2.55795385e-12 Z M51.36286,5.72813463 C52.1909325,5.75092561 52.5403943,5.78891059 52.958229,5.92565651 C53.2545118,6.01682046 53.7483165,6.22953633 54.0597934,6.39667023 C54.644762,6.70814705 55.5032225,7.35389167 55.5032225,7.48304059 C55.5032225,7.56660754 53.3684668,9.72415427 53.2848998,9.72415427 C53.2545118,9.72415427 53.0721839,9.61019934 52.8898561,9.46585643 C52.3048874,9.01763369 51.4844119,8.82011181 50.7626973,8.95685773 C50.1017587,9.07840965 49.562372,9.35190149 49.0913583,9.81531822 L48.6735235,10.217959 L48.6735235,6.24473032 L49.0457763,6.08519342 C49.7750879,5.7737166 50.2385046,5.69774664 51.36286,5.72813463 Z M16.9104852,-2.55395705e-12 L16.9104852,3.03879821 L15.2999222,3.02360422 L13.6817621,3.00081323 L13.6589712,1.49660812 L13.6437772,-2.55351296e-12 L16.9104852,-2.55395705e-12 Z"/>
</svg>
