<svg xmlns="http://www.w3.org/2000/svg" width="42" height="28" viewBox="0 0 42 28">
  <g transform="matrix(1 0 0 -1 0 28)">
    <path d="M0 26.3506311L0 24.740533 1.31556802 24.740533 2.63113604 24.740533 2.63113604 17.6325386 2.63113604 10.5245442 1.31556802 10.5245442 0 10.5245442 0 8.914446 0 7.30042076 6.39326788 7.31612903C12.2092567 7.32791024 12.8218794 7.33576438 13.2342216 7.39467041 15.1545582 7.68527349 16.5525947 8.30575035 17.5775596 9.32678822 18.343338 10.0925666 18.8106592 11.0036466 18.9913043 12.0914446 19.0698457 12.5901823 19.0502104 13.7918654 18.9481066 14.2356241 18.5318373 16.0970547 17.3576438 17.3576438 15.5708275 17.8720898L15.1152875 18.001683 15.4647966 18.1666199C17.1377279 18.9481066 18.111641 20.6092567 18.1077139 22.6591865 18.1037868 23.2914446 18.056662 23.6841515 17.9231417 24.1475456 17.3890603 25.9854137 15.7985975 27.2813464 13.4934081 27.7447405 12.5077139 27.941094 12.7511921 27.9371669 6.19691445 27.9489481L0 27.9646564 0 26.3506311zM12.9396914 15.884993C14.3377279 15.6807854 15.197756 15.028892 15.4137447 14 15.6336606 12.9632539 15.2409537 11.8990182 14.4201964 11.2942496 14.0157083 10.9997195 13.3913043 10.7483871 12.7237027 10.6187938 12.4330996 10.5598878 12.001122 10.5481066 9.33856942 10.5363254L6.28330996 10.5206171 6.28330996 13.2302945 6.28330996 15.943899 9.4171108 15.943899C11.942216 15.943899 12.6215989 15.9321178 12.9396914 15.884993zM22.227209 26.3506311L22.227209 24.740533 23.542777 24.740533 24.858345 24.740533 24.858345 17.6325386 24.858345 10.5245442 23.542777 10.5245442 22.227209 10.5245442 22.227209 8.914446 22.227209 7.30042076 28.6008415 7.31612903C35.5713885 7.33183731 35.257223 7.3200561 36.3646564 7.56353436 38.4302945 8.01907433 40.001122 9.11472651 40.7590463 10.6345021 40.9396914 10.9918654 41.1399719 11.6241234 41.2106592 12.0521739 41.3009818 12.5823282 41.2931276 13.5012623 41.1949509 14.0667602 40.8650771 15.9792426 39.6516129 17.3380084 37.7862553 17.8760168L37.3464236 18.001683 37.7273492 18.1862553C39.0232819 18.802805 39.8950912 19.9495091 40.2328191 21.4810659 40.3192146 21.8776999 40.3545582 23.0597475 40.2917251 23.487798 40.1307153 24.6030856 39.5730715 25.6319776 38.7483871 26.3467041 37.8647966 27.1124825 36.7023843 27.599439 35.1590463 27.8507714L34.6171108 27.9371669 28.4241234 27.9489481 22.227209 27.9646564 22.227209 26.3506311zM34.173352 24.6816269C35.7795231 24.4695652 36.6199158 23.8373072 36.859467 22.6591865 36.9340813 22.2743338 36.9183731 21.6852735 36.8201964 21.3043478 36.568864 20.3618513 35.8384292 19.6981767 34.7545582 19.4232819 34.1105189 19.2622721 33.7217391 19.2426367 31.0434783 19.2426367L28.5105189 19.2426367 28.5105189 21.9915849 28.5105189 24.740533 31.1180926 24.740533C33.199439 24.740533 33.8199158 24.7287518 34.173352 24.6816269zM30.9453015 13.2302945L29.5904628 10.5245442 29.0524544 10.5245442 28.5105189 10.5245442 28.5105189 13.2342216 28.5105189 15.943899 30.3876578 15.9517532C31.4165498 15.9596073 32.2687237 15.9596073 32.2805049 15.9517532 32.288359 15.943899 31.6875175 14.7225806 30.9453015 13.2302945zM35.7206171 15.7671809C36.686676 15.5237027 37.3503506 14.973913 37.5859748 14.2199158 37.6291725 14.0785414 37.6762973 13.7918654 37.6880785 13.5876578 37.7823282 12.0364656 36.745582 10.9368864 34.8998597 10.6187938 34.4914446 10.5481066 32.5357644 10.4892006 32.5593268 10.5481066 32.5671809 10.5677419 33.1680224 11.773352 33.886676 13.2263675 34.8448808 15.1467041 35.2179523 15.8653576 35.2690042 15.8653576 35.3043478 15.8653576 35.5085554 15.8221599 35.7206171 15.7671809zM3.33800842 1.90462833L3.33800842 0 3.82889201 0 4.3197756 0 4.3197756 1.16633941 4.3197756 2.32875175 4.46900421 2.11669004C4.55147265 1.99887798 4.74782609 1.72398317 4.90490884 1.50014025L5.19158485 1.09565217 5.61963534 1.71220196 6.04768583 2.32875175 6.04768583 1.16241234 6.04768583 0 6.53856942 0 7.02945302 0 7.02945302 1.90462833 7.02945302 3.80925666 6.55035063 3.80925666 6.06732118 3.80925666 5.63534362 3.18092567C5.3997195 2.83534362 5.19551192 2.55259467 5.18373072 2.55259467 5.17194951 2.55259467 4.971669 2.83534362 4.73211781 3.18092567L4.30406732 3.80925666 3.82103787 3.80925666 3.33800842 3.80925666 3.33800842 1.90462833zM11.4513324 3.77784011C11.4434783 3.76213184 11.0978962 2.90603086 10.6894811 1.87321178L9.94726508 0 10.4852735 0 11.0232819 0 11.1568022.443758766 11.2942496.883590463 11.9225806.895371669 12.5469846.903225806 12.6962132.451612903 12.8454418 0 13.3755961 0C13.6661992 0 13.9018233.00785413745 13.9018233.0157082749 13.9018233.0235624123 13.658345.644039271 13.3559607 1.39803647 13.0575035 2.15203366 12.7197756 3.00420757 12.6098177 3.29088359L12.401683 3.80925666 11.9382889 3.80925666C11.6830295 3.80925666 11.4631136 3.79354839 11.4513324 3.77784011zM12.115007 2.2345021C12.2131837 1.94782609 12.2917251 1.69649369 12.2917251 1.68078541 12.2917251 1.66507714 12.1267882 1.64936886 11.9225806 1.64936886L11.5573633 1.64936886 11.7340813 2.21879383C11.8322581 2.52903226 11.9186536 2.78036466 11.9265077 2.77251052 11.9343619 2.76465638 12.0207574 2.52510519 12.115007 2.2345021zM16.7685835 1.90462833L16.7685835 0 17.259467 0 17.7503506 0 17.7503506.628330996 17.7503506 1.25666199 17.9584853 1.25666199 18.1666199 1.25666199 18.5200561.628330996 18.8695652 0 19.4115007 0C19.7060309 0 19.9495091.00785413745 19.9495091.0196353436 19.9495091.0314165498 19.7570827.341654979 19.5175316.70687237 19.2819074 1.07208976 19.085554 1.39018233 19.085554 1.40981767 19.085554 1.42945302 19.1326788 1.4569425 19.1876578 1.4687237 19.2426367 1.48443198 19.37223 1.57868163 19.4743338 1.68078541 19.713885 1.92033661 19.7924264 2.14417952 19.7924264 2.59186536 19.7924264 3.1141655 19.6196353 3.40084151 19.1680224 3.6286115 18.8695652 3.78176718 18.626087 3.80925666 17.6718093 3.80925666L16.7685835 3.80925666 16.7685835 1.90462833zM18.512202 2.96886396C18.9402525 2.79214586 18.9088359 2.171669 18.4650771 2.04207574 18.3865358 2.01851332 18.1980365 2.00280505 18.0448808 2.01065919L17.769986 2.02244039 17.7582048 2.52510519 17.7464236 3.02384292 18.0645161 3.02384292C18.2451613 3.02384292 18.4375877 3.0002805 18.512202 2.96886396zM22.9340813 1.90462833L22.9340813 0 23.4249649 0 23.9158485 0 23.9158485.600841515 23.9158485 1.20168303 24.0493689 1.3312763 24.1868163 1.46479663 24.6619916.730434783 25.141094 0 25.769425 0 26.397756 0 26.3035063.129593268C25.5652174 1.10350631 24.8190743 2.12061711 24.8190743 2.15203366 24.8190743 2.18737728 25.1096774 2.52117812 25.9697055 3.46760168L26.2799439 3.80925666 25.6123422 3.80925666 24.9408135 3.80925666 24.4381487 3.16914446 23.9354839 2.52510519 23.9237027 3.16914446 23.9158485 3.80925666 23.4249649 3.80925666 22.9340813 3.80925666 22.9340813 1.90462833z"/>
    <polygon points="29.257 1.905 29.257 0 30.592 0 31.927 0 31.927 .412 31.927 .825 31.083 .825 30.238 .825 30.238 1.158 30.238 1.492 30.965 1.492 31.691 1.492 31.691 1.905 31.691 2.317 30.965 2.317 30.235 2.317 30.246 2.663 30.258 3.004 31.095 3.016 31.927 3.024 31.927 3.417 31.927 3.809 30.592 3.809 29.257 3.809"/>
    <polygon points="34.794 3.397 34.794 2.985 35.344 2.985 35.893 2.985 35.893 1.492 35.893 0 36.384 0 36.875 0 36.875 1.492 36.875 2.985 37.425 2.985 37.975 2.985 37.975 3.397 37.975 3.809 36.384 3.809 34.794 3.809"/>
  </g>
</svg>
