<svg xmlns="http://www.w3.org/2000/svg" width="176" height="16" viewBox="0 0 176 16">
  <path fill-rule="evenodd" d="M36.5722353 14.1176471L33.6583529 14.1176471 33.6583529 5.35905882 30.4903529 5.35905882 30.4903529 2.81788235 39.7232941 2.81788235 39.7232941 5.35905882 36.5722353 5.35905882 36.5722353 14.1176471zM51.9959665 14.1176471L49.0820841 14.1176471 49.0820841 9.57741176 44.3893783 9.57741176 44.3893783 14.1176471 41.4754959 14.1176471 41.4754959 2.81788235 44.3893783 2.81788235 44.3893783 7.03623529 49.0820841 7.03623529 49.0820841 2.81788235 51.9959665 2.81788235 51.9959665 14.1176471zM62.6761683 14.1176471L54.391933 14.1176471 54.391933 2.81788235 62.6761683 2.81788235 62.6761683 5.35905882 57.3058153 5.35905882 57.3058153 7.12094118 62.55758 7.12094118 62.55758 9.66211765 57.3058153 9.66211765 57.3058153 11.5764706 62.6761683 11.5764706 62.6761683 14.1176471zM81.1396307 14.1176471L78.0563366 14.1176471 76.3452777 7.03623529 74.6342189 14.1176471 71.5509248 14.1176471 68.3151601 2.81788235 71.5848072 2.81788235 73.295866 10.3567059 75.2271601 2.81788235 77.4633954 2.81788235 79.3946895 10.3567059 81.0888072 2.81788235 84.3753954 2.81788235 81.1396307 14.1176471zM95.9195972 14.1176471L92.6160678 14.1176471 92.0570089 12.4912941 87.6014795 12.4912941 87.0424207 14.1176471 83.7388913 14.1176471 87.9911266 2.81788235 91.6673619 2.81788235 95.9195972 14.1176471zM91.2607736 9.95011765L89.8377148 5.69788235 88.3977148 9.95011765 91.2607736 9.95011765zM107.61627 14.1176471L104.804034 14.1176471 100.026622 7.57835294 100.026622 14.1176471 97.1127401 14.1176471 97.1127401 2.81788235 100.111328 2.81788235 104.685446 9.03529412 104.685446 2.81788235 107.61627 2.81788235 107.61627 14.1176471zM114.772707 14.1176471L110.012236 14.1176471 110.012236 2.81788235 114.755765 2.81788235C118.313413 2.81788235 120.87153 4.95247059 120.87153 8.45929412 120.87153 11.9661176 118.313413 14.1176471 114.772707 14.1176471zM114.755765 11.5764706C116.737883 11.5764706 117.889883 10.1364706 117.889883 8.45929412 117.889883 6.71435294 116.83953 5.35905882 114.772707 5.35905882L112.926118 5.35905882 112.926118 11.5764706 114.755765 11.5764706zM130.975732 14.1176471L122.691497 14.1176471 122.691497 2.81788235 130.975732 2.81788235 130.975732 5.35905882 125.605379 5.35905882 125.605379 7.12094118 130.857144 7.12094118 130.857144 9.66211765 125.605379 9.66211765 125.605379 11.5764706 130.975732 11.5764706 130.975732 14.1176471zM142.672404 14.1176471L139.334993 14.1176471 137.437581 10.3228235 135.946757 10.3228235 135.946757 14.1176471 133.032875 14.1176471 133.032875 2.81788235 138.691228 2.81788235C141.198522 2.81788235 142.621581 4.47811765 142.621581 6.57882353 142.621581 8.544 141.435698 9.59435294 140.368404 9.96705882L142.672404 14.1176471zM138.250757 7.78164706C139.030051 7.78164706 139.656875 7.35811765 139.656875 6.56188235 139.656875 5.78258824 139.030051 5.35905882 138.250757 5.35905882L135.946757 5.35905882 135.946757 7.78164706 138.250757 7.78164706zM147.5079 14.1176471L144.594018 14.1176471 144.594018 2.81788235 152.878253 2.81788235 152.878253 5.35905882 147.5079 5.35905882 147.5079 7.12094118 152.759665 7.12094118 152.759665 9.66211765 147.5079 9.66211765 147.5079 14.1176471zM160.17022 14.3209412C156.544808 14.3209412 154.816808 12.3218824 154.816808 9.54352941L154.816808 2.81788235 157.781514 2.81788235 157.781514 9.44188235C157.781514 10.7802353 158.59469 11.7458824 160.17022 11.7458824 161.728808 11.7458824 162.541984 10.7802353 162.541984 9.44188235L162.541984 2.81788235 165.489749 2.81788235 165.489749 9.52658824C165.489749 12.3388235 163.795631 14.3209412 160.17022 14.3209412zM175.28901 14.1176471L167.834892 14.1176471 167.834892 2.81788235 170.748774 2.81788235 170.748774 11.5764706 175.28901 11.5764706 175.28901 14.1176471zM17.4124424.222175975C17.5116416.290769745 17.5976144.376742524 17.6662082.47594174L27.0125302 13.9924435C27.3266405 14.4467047 27.2130257 15.0695928 26.7587645 15.383703 26.5916197 15.4992794 26.39323 15.5611904 26.1900176 15.5611904L7.49737344 15.5611904C6.94508869 15.5611904 6.49737344 15.1134751 6.49737344 14.5611904 6.49737344 14.357978 6.55928442 14.1595882 6.67486082 13.9924435L16.0211829.47594174C16.3352931.021680562 16.9581812-.091934241 17.4124424.222175975zM9.00090746 2.22177945C9.10152639 2.29632395 9.18724911 2.38910368 9.25361751 2.49529353L11.188 5.59066944 5.425 13.9426694 1.05796451 13.9430329C.505679765 13.9430329.0579645148 13.4953177.0579645148 12.9430329.0579645148 12.7286723.126846446 12.5199849.254452982 12.3477437L7.60210674 2.4300018C7.93087588 1.98623463 8.5571403 1.89301031 9.00090746 2.22177945z"/>
</svg>
