<svg width="135" height="24" viewBox="0 0 135 24" fill="none" xmlns="http://www.w3.org/2000/svg">
<path fill-rule="evenodd" clip-rule="evenodd" d="M1.62778 2.16296C3.34048 0.988009 5.5884 1.41526 6.76589 3.12428L16.1857 17.01C17.3632 18.719 16.9351 20.9621 15.2224 22.137C13.5097 23.312 11.2617 22.8847 10.0842 21.1757L0.664387 7.29C-0.513096 5.58098 -0.0849205 3.3379 1.62778 2.16296ZM16.507 8.3581C16.507 6.32864 18.2197 4.61963 20.2535 4.61963C22.2874 4.61963 24.0001 6.32864 24.0001 8.3581C24.0001 10.3876 22.2874 12.0966 20.2535 12.0966C18.2197 12.0966 16.507 10.3876 16.507 8.3581Z" fill="black"/>
<path fill-rule="evenodd" clip-rule="evenodd" d="M104.214 3.89999H107.36L107.252 6.83478H109.856V9.66086H107.252V14.8783C107.252 15.8565 107.903 16.0739 108.445 16.0739C109.205 16.0739 109.639 15.7478 109.639 15.7478V18.3565C109.639 18.3565 109.096 18.9 107.469 18.9C104.197 18.9 104.211 16.0195 104.214 15.3627L104.214 15.313V3.89999ZM44.3274 12.4869C44.3274 9.11738 47.0397 6.29129 50.5114 6.29129C53.9831 6.29129 56.6953 9.00868 56.6953 12.4869V13.6826H47.5821L47.6906 13.9C48.2331 15.0956 49.4265 15.9652 50.8368 15.9652C51.9217 15.9652 52.7897 15.5304 53.4406 14.7696L55.7189 15.9652C54.5255 17.5956 52.6812 18.6826 50.5114 18.6826C47.1482 18.6826 44.3274 15.9652 44.3274 12.4869ZM50.6199 9.11738C49.2095 9.11738 48.0161 9.98694 47.6906 11.2913H53.5491C53.1151 10.0956 52.0302 9.11738 50.6199 9.11738ZM88.7001 6.29129C85.2284 6.29129 82.5161 9.11738 82.5161 12.4869C82.5161 15.9652 85.3369 18.6826 88.7001 18.6826C92.1717 18.6826 94.884 15.8565 94.884 12.4869C94.884 9.00868 92.1717 6.29129 88.7001 6.29129ZM88.7001 15.5304C87.0727 15.5304 85.6623 14.2261 85.6623 12.4869C85.6623 10.8565 86.9642 9.44347 88.7001 9.44347C90.3274 9.44347 91.7378 10.7478 91.7378 12.4869C91.7378 14.1174 90.3274 15.5304 88.7001 15.5304ZM64.8319 6.39997C63.313 6.39997 62.1196 7.16084 61.3602 8.35649V6.83475H58.214V18.5739H61.3602V11.6174C61.3602 10.313 62.4451 9.22606 63.747 9.22606C65.0489 9.22606 65.9168 10.313 65.9168 11.6174V11.7261V18.4652H69.063V11.2913V10.6391C69.063 8.2478 67.2187 6.39997 64.8319 6.39997ZM117.125 6.29129C113.653 6.29129 110.941 9.11738 110.941 12.4869C110.941 15.9652 113.761 18.6826 117.125 18.6826C119.295 18.6826 121.139 17.5956 122.332 15.9652L120.054 14.6609C119.403 15.4217 118.535 15.8565 117.45 15.8565C116.04 15.8565 114.846 14.9869 114.304 13.7913L114.195 13.5739H123.309V12.3782C123.309 9.00868 120.596 6.29129 117.125 6.29129ZM114.304 11.2913C114.629 9.98694 115.823 9.11738 117.233 9.11738C118.644 9.11738 119.728 10.0956 120.162 11.2913H114.304ZM73.1859 12.4869C73.1859 14.3348 74.7048 15.7478 76.4406 15.7478C77.5255 15.7478 78.6104 15.0956 79.1529 14.1174L81.7566 15.6391C80.6717 17.4869 78.7189 18.6826 76.4406 18.6826C73.0774 18.6826 70.2567 15.8565 70.2567 12.4869C70.2567 9.11738 73.0774 6.29129 76.4406 6.29129C78.5019 6.29129 80.4548 7.37825 81.5397 9.00868L79.0444 10.6391C78.5019 9.76955 77.5255 9.22607 76.4406 9.22607C74.5963 9.22607 73.1859 10.6391 73.1859 12.4869ZM134.7 6.83479H131.445L128.733 10.5304L126.021 6.83479H122.766L127.106 12.7044L122.766 18.4652H126.021L128.733 14.8783L131.445 18.4652H134.7L130.36 12.7044L134.7 6.83479ZM103.238 9.98694V6.72607C101.719 6.72607 100.309 7.59563 99.6576 8.89998V6.83476H96.5114V18.5739H99.6576V13.6826C99.6576 11.5087 101.285 9.98694 103.238 9.98694ZM40.6387 6.83479H44.2188L39.3368 18.3565V18.4652H36.0821V18.3565L31.2 6.83479H34.7802L37.7094 14.2261L40.6387 6.83479Z" fill="black"/>
</svg>
