<svg width="24" height="24" viewBox="0 0 24 24" fill="none" xmlns="http://www.w3.org/2000/svg">
<path fill-rule="evenodd" clip-rule="evenodd" d="M19.75 24H4.25C1.9 24 0 22.0513 0 19.641V4.35897C0 1.94872 1.9 0 4.25 0H19.75C22.1 0 24 1.94872 24 4.35897V19.641C24 22.0513 22.1 24 19.75 24Z" fill="#FF26BE"/>
<path fill-rule="evenodd" clip-rule="evenodd" d="M19.37 22.9746H4.63C2.63 22.9746 1 21.3028 1 19.2515V4.74896C1 2.69767 2.63 1.02588 4.63 1.02588H19.36C21.37 1.02588 22.99 2.69767 22.99 4.74896V19.2413C23 21.3028 21.37 22.9746 19.37 22.9746Z" fill="#2E001F"/>
<path fill-rule="evenodd" clip-rule="evenodd" d="M9.49001 11.2308L12.29 16.7488C12.34 16.8308 12.31 16.9129 12.23 16.9129H10.49C10.38 16.9129 10.33 16.8821 10.28 16.7795C10.1146 16.4295 9.94843 16.0795 9.78146 15.7277L9.78142 15.7276C9.30256 14.7187 8.81678 13.6953 8.32001 12.6154H8.30001C7.70001 13.9898 7.04001 15.4359 6.40001 16.7898C6.35001 16.8718 6.30001 16.9026 6.22001 16.9026H4.57001C4.47001 16.9026 4.46001 16.8206 4.51001 16.759L7.25001 11.4052L4.60001 5.98978C4.54001 5.90773 4.60001 5.84619 4.66001 5.84619H6.38001C6.48001 5.84619 6.52001 5.86671 6.56001 5.95901C7.19001 7.31286 7.83001 8.70773 8.43001 10.0718H8.45001C9.03001 8.71799 9.67001 7.31286 10.29 5.96927L10.2918 5.96627C10.3408 5.88597 10.3712 5.83594 10.47 5.83594H12.08C12.16 5.83594 12.19 5.89748 12.14 5.97953L9.49001 11.2308ZM12.78 12.9022C12.78 10.5124 14.33 8.64577 16.79 8.64577C17 8.64577 17.11 8.64577 17.31 8.66628V5.94833C17.31 5.88679 17.36 5.84577 17.41 5.84577H18.99C19.07 5.84577 19.09 5.87654 19.09 5.92782V15.3432C19.09 15.6201 19.09 15.9688 19.14 16.3483C19.14 16.4099 19.12 16.4304 19.06 16.4612C18.22 16.8714 17.34 17.056 16.5 17.056C14.33 17.0663 12.78 15.6919 12.78 12.9022ZM16.73 10.1744C16.97 10.1744 17.17 10.2154 17.31 10.277V15.3539C17.12 15.436 16.86 15.4667 16.62 15.4667C15.49 15.4667 14.59 14.7078 14.59 12.8206C14.59 11.1693 15.47 10.1744 16.73 10.1744Z" fill="#FFD9F2"/>
</svg>
