<svg xmlns="http://www.w3.org/2000/svg" width="37" height="24" fill="none"><path d="M3.477 22.618c-1.205 0-2.18-.998-2.18-2.23s.977-2.23 2.182-2.23 2.18.998 2.18 2.23-.976 2.23-2.18 2.23h0zm2.19.283c0 .204.35.778.78.778h.278c.108 0 .196-.088.196-.196l-.001-6.102c-.003-.05-.024-.097-.06-.13s-.084-.054-.134-.054h-.86c-.104 0-.19.082-.195.185h-.001v.496c-.527-.65-1.358-.92-2.192-.92a3.43 3.43 0 1 0 0 6.861c.834 0 1.742-.323 2.192-.92h0zm3.308-.874c.574.398 1.2.59 1.804.59.574 0 1.167-.298 1.167-.816 0-.69-1.293-.8-2.105-1.075s-1.513-.847-1.513-1.77c0-1.414 1.26-1.998 2.437-1.998.745 0 1.514.246 2.013.598.172.13.067.28.067.28l-.476.68c-.053.077-.164.138-.28.06-.32-.212-.678-.416-1.323-.416-.798 0-1.15.33-1.15.742 0 .493.562.647 1.22.816 1.147.31 2.398.68 2.398 2.086 0 1.246-1.166 2.016-2.454 2.016-.976 0-1.807-.278-2.505-.8-.145-.145-.044-.28-.044-.28l.473-.676c.096-.127.218-.082.27-.045zm10.7.874c0 .204.35.778.778.778h.278c.108 0 .196-.088.196-.196l-.001-6.102c-.003-.05-.024-.097-.06-.13s-.084-.054-.134-.054h-.86c-.104 0-.19.082-.195.185h-.001v.496c-.527-.65-1.358-.92-2.192-.92a3.43 3.43 0 1 0 0 6.861c.833 0 1.742-.323 2.192-.92h0 0zm-2.188-.283c-1.205 0-2.182-.998-2.182-2.23s.977-2.23 2.182-2.23 2.182.998 2.182 2.23-.977 2.23-2.18 2.23h0zm11.15.492v-3.157c0-1.78-1.123-2.98-2.914-2.98-.855 0-1.554.494-1.802.92v-.006l-.001.005c-.001-.43-.35-.68-.78-.68h-.276c-.108 0-.196.088-.196.196l.001 6.102c.006.103.09.185.195.185h.86c.013 0 .026-.002.038-.004l.036-.01c.008-.003.015-.008.022-.01a.2.2 0 0 0 .035-.025c.04-.038.06-.084.064-.134h.001v-3.604a1.73 1.73 0 1 1 3.462 0l.001 3.012v.593h.001c.006.103.09.185.195.185h.86c.013 0 .026-.002.04-.004l.036-.01c.007-.003.013-.007.02-.01.02-.012.028-.018.035-.024.014-.012.02-.02.028-.03.023-.03.036-.067.038-.105v-.001h.001V23.1zm6.7-.2c0 .204.35.778.778.778h.278c.108 0 .196-.088.196-.196l-.001-6.102c-.003-.05-.024-.097-.06-.13s-.084-.054-.134-.054h-.86c-.05 0-.098.02-.134.054s-.058.08-.06.13h-.001v.496c-.528-.65-1.358-.92-2.192-.92a3.43 3.43 0 1 0 0 6.861c.834 0 1.742-.323 2.192-.92h0zm-2.188-.283c-1.205 0-2.182-.998-2.182-2.23s.977-2.23 2.182-2.23 2.18.998 2.18 2.23-.977 2.23-2.18 2.23h0z" fill="#283343"/><path d="M22.286 6.945c-1.66 0-3.006 1.346-3.006 3.006s1.346 3.006 3.006 3.006 3.006-1.346 3.006-3.006-1.346-3.006-3.006-3.006zm-7.8 0c-1.66 0-3.006 1.346-3.006 3.006s1.346 3.006 3.006 3.006 3.006-1.346 3.006-3.006-1.346-3.006-3.007-3.006h0zm6.91-3.758c0 1.66-1.346 3.006-3.006 3.006s-3.006-1.346-3.006-3.006S16.72.18 18.38.18s3.006 1.346 3.006 3.006h0z" fill="url(#A)"/><defs><radialGradient id="A" cx="0" cy="0" r="1" gradientUnits="userSpaceOnUse" gradientTransform="translate(18.3804 7.16367) scale(9.15921 8.46597)"><stop stop-color="#ffb900"/><stop offset=".6" stop-color="#f95d8f"/><stop offset=".999" stop-color="#f95353"/></radialGradient></defs></svg>