<svg xmlns="http://www.w3.org/2000/svg" width="29" height="26" fill="none"><g fill-rule="evenodd"><path d="M.922 1.02c.168-.194.413-.304.67-.302l25.55-.044c.257-.003.502.107.67.302a.88.88 0 0 1 .205.707l-3.72 22.85c-.065.433-.44.75-.875.746H5.617a1.18 1.18 0 0 1-1.181-1.009L.717 1.728a.88.88 0 0 1 .205-.707zm10.645 16.014h5.688l1.4-8.07H9.992l1.575 8.07z" fill="#2684ff"/><path d="M26.835 8.965H18.6l-1.356 8.07h-5.687l-6.78 7.982a1.18 1.18 0 0 0 .787.307H23.38c.436.005.81-.313.875-.746l2.58-15.614z" fill="url(#A)"/></g><defs><linearGradient id="A" x1="21.564" y1="6.214" x2="12.08" y2="19.697" gradientUnits="userSpaceOnUse"><stop offset=".2" stop-color="#0052cc"/><stop offset="1" stop-color="#2684ff"/></linearGradient></defs></svg>