<svg xmlns="http://www.w3.org/2000/svg" width="25" height="24" fill="none"><path d="M12.707.18a12 12 0 0 0-12 12c0 5.64 3.87 10.32 9.1 11.64a1.62 1.62 0 0 1-.09-.57v-2.04h-1.5c-.8 0-1.56-.36-1.9-1.02-.4-.72-.45-1.83-1.44-2.52-.3-.24-.06-.48.27-.45.63.18 1.14.6 1.62 1.23s.7.78 1.6.78c.42 0 1.08-.03 1.68-.12.33-.84.9-1.6 1.6-1.95-4.02-.48-5.94-2.46-5.94-5.16 0-1.17.5-2.28 1.35-3.24-.27-.93-.63-2.85.12-3.6 1.8 0 2.88 1.17 3.15 1.47a9.24 9.24 0 0 1 2.91-.48c1.05 0 2 .18 2.9.48.27-.3 1.35-1.47 3.15-1.47.72.72.4 2.67.1 3.6.84.93 1.32 2.07 1.32 3.24 0 2.7-1.9 4.68-5.88 5.1 1.1.57 1.9 2.2 1.9 3.4v2.733c0 .1-.03.18-.03.27 4.68-1.62 8.04-6.06 8.04-11.3a12 12 0 0 0-12-12z" fill="#000"/></svg>