<svg xmlns="http://www.w3.org/2000/svg" width="24" height="24" fill="none" fill-rule="evenodd"><path d="M1 5.026a4 4 0 0 1 4-4h14a4 4 0 0 1 4 4v13.95a4 4 0 0 1-4 4H5a4 4 0 0 1-4-4V5.026z" fill="#261300"/><path d="M4 24a4 4 0 0 1-4-4V4a4 4 0 0 1 4-4h16a4 4 0 0 1 4 4v16a4 4 0 0 1-4 4H4zM23 5.026a4 4 0 0 0-4-4H5a4 4 0 0 0-4 4v13.95a4 4 0 0 0 4 4h14a4 4 0 0 0 4-4V5.026zm-7.4 1.2c0-.656.45-1.046 1.02-1.046.6 0 1.02.42 1.02 1.046 0 .677-.43 1.046-1.04 1.046-.58 0-1-.37-1-1.046zm-8.07 10.44l.8-3.077h3.2l.83 3.087c.02.072.07.092.15.092h1.66c.08 0 .1-.05.08-.133L11.06 5.57c-.02-.082-.05-.103-.12-.103h-2.1c-.05 0-.08.03-.08.103-.02.503-.05.667-.1.85L5.82 16.616c-.02.123 0 .154.1.154H7.4c.1 0 .13-.02.15-.102zm3.228-6.1l.342 1.352H8.74l1.16-4.82h.02l.848 3.468zM15.85 8.43c-.1 0-.12.04-.12.123h.01v8.082c0 .082.03.133.13.133h1.55c.1 0 .12-.04.12-.123v-8.09c0-.092-.04-.123-.12-.123h-1.57z" fill="#ff7c00"/></svg>