<svg xmlns="http://www.w3.org/2000/svg" width="24" height="24" fill="none"><path d="M21.824 0H2.176C.973 0 0 .973 0 2.176v19.647C0 23.027.973 24 2.176 24h19.647C23.027 24 24 23.027 24 21.824V2.176C24 .973 23.027 0 21.824 0z" fill="#f36"/><path d="M8.022 7.548c.796 0 1.466-.625 1.466-1.447s-.67-1.447-1.466-1.447S6.556 5.28 6.556 6.1s.67 1.447 1.466 1.447zm-3.038 7.74a5.06 5.06 0 0 0-.132 1.085c0 1.27.7 2.117 2.157 2.117 1.216 0 2.203-.723 2.913-1.887l-.434 1.742H11.9l1.38-5.536c.342-1.4 1.013-2.13 2.025-2.13.796 0 1.295.493 1.295 1.315a2.61 2.61 0 0 1-.105.776l-.7 2.545a3.95 3.95 0 0 0-.151 1.078c0 1.2.7 2.1 2.196 2.1 1.27 0 2.288-.822 2.847-2.78l-.947-.368c-.473 1.315-.88 1.552-1.2 1.552s-.493-.217-.493-.644c0-.197.046-.408.105-.67l.7-2.48c.17-.585.237-1.098.237-1.572 0-1.854-1.124-2.82-2.48-2.82-1.27 0-2.564 1.144-3.215 2.354l.473-2.17h-3.7l-.52 1.907h1.723l-1.08 4.252c-.835 1.854-2.367 1.887-2.558 1.84-.316-.072-.52-.2-.52-.598 0-.237.046-.58.15-.986L9 8.882H4.885l-.52 1.907H6.08l-1.098 4.497z" fill="#fff"/></svg>