<svg xmlns="http://www.w3.org/2000/svg" width="24" height="24" fill="none" fill-rule="evenodd"><path d="M1 5.026a4 4 0 0 1 4-4h14a4 4 0 0 1 4 4v13.95a4 4 0 0 1-4 4H5a4 4 0 0 1-4-4V5.026z" fill="#001d26"/><path d="M4 0a4 4 0 0 0-4 4v16a4 4 0 0 0 4 4h16a4 4 0 0 0 4-4V4a4 4 0 0 0-4-4H4zM1 5.026a4 4 0 0 1 4-4h14a4 4 0 0 1 4 4v13.95a4 4 0 0 1-4 4H5a4 4 0 0 1-4-4V5.026zm5.02.472c-.08 0-.22.05-.22.123v11.026c0 .092.04.123.12.123h1.53c.1 0 .12-.04.12-.123v-3.618c0-.177.143-.32.32-.31h0l.46.012c2.26 0 4.1-1.118 4.1-3.723 0-2-1.08-3.56-3.85-3.56l-2.58.05zm1.56 4.76c0 .46.35.83.8.83 1.17 0 2.27-.42 2.27-2.05 0-1.303-.8-1.96-2.12-1.96-.54 0-.96.452-.96.99v2.188zm7.54.338c0-.338.27-.75 1.06-.75.56 0 1.122.13 1.548.35.13.068.342.156.342.01V8.8c0-.072-.02-.154-.1-.205-.33-.154-.93-.287-1.8-.287-1.75 0-2.76 1.097-2.76 2.42 0 1.18.6 1.887 2 2.585 1 .533 1.24.862 1.24 1.23 0 .462-.33.8-1.12.8-.66 0-1.38-.185-2-.605-.07-.05-.12-.02-.12.082v1.508c0 .082.01.133.08.164.43.256 1.18.44 2.05.44 1.65 0 2.87-.882 2.87-2.523 0-1.097-.5-1.846-2.06-2.626-1.06-.564-1.24-.82-1.24-1.2z" fill="#00c8ff"/></svg>