<svg xmlns="http://www.w3.org/2000/svg" width="24" height="24" fill="none"><g clip-path="url(#B)"><path d="M12.084 16.885c1.022 0 1.85-.823 1.85-1.84s-.828-1.84-1.85-1.84-1.85.823-1.85 1.84.828 1.84 1.85 1.84zM3.002 20.06L3 8.944C3 4.004 7.03 0 12 0s9 4.004 9 8.944-3.945 8.944-8.916 8.944c-1.58 0-2.86-1.272-2.86-2.842s1.28-2.842 2.86-2.842c1.812 0 3.196-1.46 3.196-3.26s-1.47-3.26-3.28-3.26-3.28 1.46-3.28 3.26l.002 12.214c.001 2.754-3.022 3.507-4.672 2.257.484-.332.8-.887.8-1.515 0-1.015-.828-1.838-1.85-1.84z" fill="url(#A)"/></g><defs><linearGradient id="A" x1="6.159" y1="2.6" x2="13.409" y2="16.85" gradientUnits="userSpaceOnUse"><stop stop-color="#c36ad5"/><stop offset="1" stop-color="#662caa"/></linearGradient><clipPath id="B"><path fill="#fff" d="M0 0h24v24H0z"/></clipPath></defs></svg>