<svg xmlns="http://www.w3.org/2000/svg" xmlns:xlink="http://www.w3.org/1999/xlink" width="27" height="24" fill="none"><style><![CDATA[.B{fill-rule:evenodd}.C{fill:#fff}]]></style><use xlink:href="#I" fill="#fdb300" class="B"/><mask id="A" mask-type="alpha" maskUnits="userSpaceOnUse" x="0" y="0" width="27" height="24"><use xlink:href="#I" class="B C"/></mask><g mask="url(#A)" class="B"><path d="M0 9l13 15L5.266 9H0z" fill="#eb6c00"/></g><mask id="B" mask-type="alpha" maskUnits="userSpaceOnUse" x="0" y="0" width="27" height="24"><use xlink:href="#I" class="B C"/></mask><g mask="url(#B)" class="B"><path d="M20.734 9L13 24 26 9h-5.266z" fill="#eb6c00"/></g><mask id="C" mask-type="alpha" maskUnits="userSpaceOnUse" x="0" y="0" width="27" height="24"><use xlink:href="#I" class="B C"/></mask><g mask="url(#C)" class="B"><path d="M5 9l8.5 15L22 9H5z" fill="#fdad00"/></g><mask id="D" mask-type="alpha" maskUnits="userSpaceOnUse" x="0" y="0" width="27" height="24"><use xlink:href="#I" class="B C"/></mask><g mask="url(#D)" class="B"><path d="M6.42.83L6 9l8-9-7.58.83z" fill="#fdd231"/></g><mask id="E" mask-type="alpha" maskUnits="userSpaceOnUse" x="0" y="0" width="27" height="24"><use xlink:href="#I" class="B C"/></mask><g mask="url(#E)" class="B"><path d="M21 9L20.58.83 13 0l8 9z" fill="#fdd231"/></g><mask id="F" mask-type="alpha" maskUnits="userSpaceOnUse" x="0" y="0" width="27" height="24"><use xlink:href="#I" class="B C"/></mask><g mask="url(#F)" class="B"><path d="M0 9h4.64L5 1 0 9z" fill="#fdad00"/></g><mask id="G" mask-type="alpha" maskUnits="userSpaceOnUse" x="0" y="0" width="27" height="24"><use xlink:href="#I" class="B C"/></mask><g mask="url(#G)" class="B"><path d="M13.5 0L5 9H22L13.5 0Z" fill="#feeeb7"/></g><defs ><path id="I" d="M13.5 0L5.89.8 0 8.558 13.5 24 27 8.558 21.11.8 13.5 0z"/></defs></svg>