<svg xmlns="http://www.w3.org/2000/svg" width="25" height="24" fill="none" fill-rule="evenodd"><path d="M5.09 15.172a2.52 2.52 0 0 1-2.523 2.523 2.52 2.52 0 0 1 0-5.046H5.09v2.523zm1.26 0a2.52 2.52 0 1 1 5.046 0v6.306a2.52 2.52 0 1 1-5.046 0v-6.305z" fill="#e01e5a"/><path d="M8.872 5.046a2.52 2.52 0 0 1-2.523-2.523 2.52 2.52 0 1 1 5.046 0v2.523H8.872zm0 1.28a2.52 2.52 0 1 1 0 5.046H2.547a2.52 2.52 0 1 1 0-5.046h6.324z" fill="#36c5f0"/><path d="M18.98 8.847a2.52 2.52 0 1 1 5.046 0 2.52 2.52 0 0 1-2.523 2.523H18.98V8.847zm-1.26 0a2.52 2.52 0 1 1-5.046 0V2.523a2.52 2.52 0 1 1 5.046 0v6.324z" fill="#2eb67d"/><path d="M15.196 18.954a2.52 2.52 0 1 1 0 5.046 2.52 2.52 0 0 1-2.523-2.523v-2.523h2.523zm0-1.26a2.52 2.52 0 0 1 0-5.046h6.324a2.52 2.52 0 0 1 0 5.046h-6.324z" fill="#ecb22e"/></svg>