<svg xmlns="http://www.w3.org/2000/svg" xmlns:xlink="http://www.w3.org/1999/xlink" width="23" height="24" fill="none"><g transform="rotate(350.8 .606 2.769)"><rect x=".606" y="2.769" width="17.316" height="21.508" rx=".561" fill="#000"/><rect x=".606" y="2.769" width="17.316" height="21.508" rx=".561" fill="#222"/><rect x=".606" y="2.769" width="17.316" height="21.508" rx=".561" fill="url(#A)"/></g><g fill-rule="evenodd"><use xlink:href="#D" fill="#c69eff"/><use xlink:href="#D" fill="#0065c9" style="mix-blend-mode:multiply"/><use xlink:href="#E" fill="#0097e3"/><use xlink:href="#E" fill="url(#B)"/><use xlink:href="#F" fill="#000"/><use xlink:href="#F" fill="#0097e3"/><path d="M4.428 17.968l14.102 2.37 4.177-2.627-18.278.258z" fill="#0065c9"/><path d="M4.428 17.968l14.102 2.37 4.177-2.627-18.278.258z" fill="url(#C)"/><path d="M15.683 2.118l4.703 1.138 2.32 14.455-4.17 2.613-2.854-18.206z" fill="#0097e3"/></g><defs><linearGradient id="A" x1="-8.052" y1="13.523" x2="12.961" y2="30.44" gradientUnits="userSpaceOnUse"><stop stop-color="#fff" stop-opacity=".18"/><stop offset=".488" stop-color="gray" stop-opacity=".08"/><stop offset="1" stop-opacity=".183"/></linearGradient><linearGradient id="B" x1="2.261" y1="10.559" x2="5.061" y2="15.118" gradientUnits="userSpaceOnUse"><stop stop-opacity=".1"/><stop offset="1" stop-opacity=".01"/></linearGradient><linearGradient id="C" x1="22.167" y1="17.054" x2="16.635" y2="21.599" gradientUnits="userSpaceOnUse"><stop stop-opacity=".3"/><stop offset="1" stop-opacity=".01"/></linearGradient><path id="D" d="M11.42 5.583l1.52 9.988c.008.056.06.094.115.085.014-.002.027-.007.04-.015l2.13-1.405c.033-.022.05-.062.045-.102l-1.234-7.957c-.006-.04-.036-.073-.075-.083l-2.414-.625a.1.1 0 0 0-.122.074c-.003.013-.004.027-.002.04z"/><path id="E" d="M15.217 14.24l-2.244 1.485c-.035.023-.08.022-.114-.003l-8.58-6.358c-.045-.033-.055-.097-.022-.143.008-.012.02-.022.032-.03l.775-.446c.03-.017.065-.018.096-.002l10.05 5.318c.05.026.07.088.043.138-.008.016-.02.03-.034.04z"/><path id="F" d="M14.002 6.266l-7.94 8.23c-.022.023-.053.034-.084.03l-.902-.113c-.055-.007-.094-.058-.087-.114.002-.018.01-.035.02-.05l6.428-8.743c.024-.033.066-.048.105-.038l2.414.625c.054.014.086.07.073.124-.004.018-.013.034-.026.047z"/></defs></svg>