<svg xmlns="http://www.w3.org/2000/svg" width="31" height="24" fill="none"><path d="M4.628 16.548l-1.57.574-.084 4.672 5.437-1.986c-1.866-.625-3.227-1.726-3.783-3.26z" fill="#fdbd39"/><path d="M5.45 11.607L0 13.598l3.058 3.525 1.57-.574c-.554-1.528-.212-3.254.822-4.943z" fill="#f69833"/><path d="M14.62 4.864C7.68 7.4 3.206 12.63 4.628 16.55l25.132-9.18c-1.422-3.917-8.2-5.04-15.14-2.504z" fill="#fecf33"/><path d="M19.766 19.054C26.706 16.52 31.188 11.3 29.76 7.37L4.627 16.55c1.43 3.942 8.2 5.04 15.14 2.505z" fill="#ee6723"/><path d="M29.76 7.368l-25.13 9.18c.492 1.357 2.37 2.026 5 2.026 2.567 0 5.853-.635 9.28-1.886 6.94-2.535 11.822-6.64 10.85-9.32z" fill="#f69833"/><path d="M24.757 5.343c-2.566 0-5.853.635-9.28 1.886-6.94 2.535-11.822 6.64-10.85 9.32l25.132-9.18c-.493-1.357-2.37-2.025-5.003-2.025z" fill="#fdbd39"/><g fill="#ee6723"><path d="M23.37 22.043c-.74 0-1.83-.668-3.242-1.985-1.67-1.558-3.583-3.84-5.388-6.427s-3.286-5.17-4.174-7.28c-.967-2.298-1.105-3.7-.4-4.2.16-.1.352-.166.546-.16.565 0 1.668.42 3.705 2.426l.045.044-.006.062-.037.433-.022.283-.2-.2c-2.196-2.212-3.16-2.45-3.476-2.45-.1 0-.16.017-.212.054-.302.212-.322 1.25.616 3.477.872 2.07 2.333 4.617 4.113 7.17s3.665 4.802 5.307 6.333c1.77 1.65 2.566 1.83 2.827 1.83a.37.37 0 0 0 .217-.057c.318-.223.318-1.335-.727-3.733l-.05-.1.105-.057.302-.168.126-.07.06.132c.74 1.7 1.435 3.86.525 4.497a.93.93 0 0 1-.549.161zm0-.262v.13-.13z"/><path d="M19.934 18.98l-.01.13c-.176 2.17-.637 4.78-1.843 4.887-.025.003-.05.003-.074.003-.818 0-1.593-1.173-2.3-3.484-.67-2.188-1.19-5.125-1.465-8.27s-.27-6.128.01-8.4C14.56 1.37 15.145.08 15.99.004A.78.78 0 0 1 16.067 0c.594 0 1.488.672 2.404 3.804l-.598.115c-.306-1.045-.64-1.896-.97-2.483-.306-.54-.604-.838-.837-.838-.007 0-.015 0-.024.001-.367.032-.9.92-1.198 3.32-.277 2.23-.28 5.17-.01 8.274s.782 5.998 1.44 8.146c.294.962.618 1.755.936 2.293.292.497.575.77.796.77.008 0 .015 0 .023-.001.35-.03 1.012-.956 1.3-4.2l.614-.2z"/></g></svg>